# xmcd CD database file
#
# Track frame offsets:
#	150
#	11694
#	20686
#	30508
#	47730
#	58325
#	68285
#	81814
#	95276
#	106943
#	116937
#	127329
#	143623
#	154458
#	166177
#	178194
#	193271
#	205365
#	221322
#	238064
#
# Disc length: 3353 seconds
#
# Revision: 0
# Processed by: cddbd v1.5.2PL0 Copyright (c) Steve Scherf et al.
# Submitted via: CDex 1.51
#
DISCID=200d1714
DTITLE=John Lee Hooker - Boom Boom
DYEAR=1900
DGENRE=Blues
TTITLE0=Boom Boom
TTITLE1=Hobo Blues
TTITLE2=Dusty Road
TTITLE3=Blues Before Sunrise
TTITLE4=Let`s make it
TTITLE5=Dimples
TTITLE6=Baby Lee
TTITLE7=I`m Going Upstairs
TTITLE8=Hard Headed Woman
TTITLE9=Onions
TTITLE10=Old Time Shimmy
TTITLE11=Process
TTITLE12=No Shoes
TTITLE13=Little Wheel
TTITLE14=Whisky and Wimmen
TTITLE15=Grawling Kind Snake
TTITLE16=I`m in the Mood
TTITLE17=Thelma
TTITLE18=When My First Wife Left Me
TTITLE19=I`m So Excited
EXTD=
EXTT0=
EXTT1=
EXTT2=
EXTT3=
EXTT4=
EXTT5=
EXTT6=
EXTT7=
EXTT8=
EXTT9=
EXTT10=
EXTT11=
EXTT12=
EXTT13=
EXTT14=
EXTT15=
EXTT16=
EXTT17=
EXTT18=
EXTT19=
PLAYORDER=
